<svg   viewBox="0 0 22.669149 12.144023">
  <g  transform="translate(-3.784474,-25.588702)" >
    <g transform="matrix(0.3527778,0,0,-0.3527778,23.206303,28.996536)" >
      <path
         d="M 0,0 C -1.086,0.307 -2.232,0.48 -3.418,0.48 L -3.825,0.461 c -2.575,5.434 -8.093,9.199 -14.51,9.199 -5.307,0 -10,-2.584 -12.925,-6.549 -1.051,1.192 -2.573,1.959 -4.287,1.959 -2.797,0 -5.121,-2.004 -5.628,-4.652 -0.414,0.041 -0.833,0.062 -1.257,0.062 -1.947,0 -3.785,-0.453 -5.432,-1.24 -4.248,-2.033 -7.19,-6.357 -7.19,-11.381 0,-6.972 5.65,-12.623 12.622,-12.623 l 39.014,0 c 6.973,0 12.623,5.651 12.623,12.623 C 9.205,-6.355 5.31,-1.492 0,0" />
    </g>
  </g>
</svg>
