<svg viewBox="0 0 14.764531 18.487968" >
  <g  transform="translate(-32.683214,-42.827445)">
    <g  transform="matrix(0.3527778,0,0,-0.3527778,46.7892,47.290084)">
      <path
         d="m 0,0 c -1.807,3.613 -9.035,3.613 -14.457,9.035 l 0,3.615 -5.421,0 0,-35.064 c -2.683,0.932 -6.091,1.047 -9.576,0.121 -6.939,-1.844 -11.567,-7.103 -10.332,-11.746 1.233,-4.65 7.86,-6.92 14.799,-5.078 6.18,1.64 10.516,5.992 10.52,10.209 l 0.01,-0.006 0,28.914 C -1.807,0 -1.807,-12.65 0,-12.65 c 1.15,0 2.121,3.654 1.807,7.244 C 1.631,-3.352 0.66,-1.316 0,0" />
    </g>
  </g>
</svg>
