<svg viewBox="0 0 16.941538 9.0230799">
  <g
     transform="translate(-89.803042,-101.98846)">
    <path
       d="m 104.61045,107.78654 c 0,-0.28178 0.22833,-0.51038 0.51012,-0.51038 l 1.11389,0 c 0.28178,0 0.51012,0.22833 0.51012,0.51038 l 0,2.71489 c 0,0.28178 -0.22834,0.51011 -0.51012,0.51011 l -1.11389,0 c -0.28179,0 -0.51012,-0.22807 -0.51012,-0.51011 l 0,-2.71489 z" />
    <path
       d="m 102.14268,102.4991 c 0,-0.28204 0.2286,-0.51064 0.51012,-0.51064 l 1.11389,0 c 0.28205,0 0.51038,0.22833 0.51038,0.51064 l 0,8.00206 c 0,0.28178 -0.22833,0.51012 -0.51038,0.51012 l -1.11389,0 c -0.28152,0 -0.51012,-0.22807 -0.51012,-0.51012 l 0,-8.00206 z" />
    <path
       d="m 99.674911,108.31994 c 0,-0.28152 0.228335,-0.51012 0.510379,-0.51012 l 1.11363,0 c 0.28205,0 0.51039,0.22834 0.51039,0.51012 l 0,2.18122 c 0,0.28178 -0.22834,0.51012 -0.51039,0.51012 l -1.11363,0 c -0.281779,0 -0.510379,-0.22807 -0.510379,-0.51012 l 0,-2.18122 z" />
    <path
       d="m 97.206878,105.41852 c 0,-0.28205 0.2286,-0.51065 0.510381,-0.51065 l 1.113896,0 c 0.281781,0 0.510116,0.22834 0.510116,0.51065 l 0,5.08264 c 0,0.28178 -0.228335,0.51012 -0.510116,0.51012 l -1.113896,0 c -0.281781,0 -0.510381,-0.22807 -0.510381,-0.51012 l 0,-5.08264 z" />
    <path
       d="m 94.739109,102.4991 c 0,-0.28204 0.228335,-0.51064 0.510381,-0.51064 l 1.113631,0 c 0.281782,0 0.510646,0.22833 0.510646,0.51064 l 0,8.00206 c 0,0.28178 -0.2286,0.51012 -0.510646,0.51012 l -1.113631,0 c -0.282046,0 -0.510381,-0.22807 -0.510381,-0.51012 l 0,-8.00206 z" />
    <path
       d="m 92.270811,108.31994 c 0,-0.28152 0.228865,-0.51012 0.510646,-0.51012 l 1.113631,0 c 0.281517,0 0.510117,0.22834 0.510117,0.51012 l 0,2.18122 c 0,0.28178 -0.2286,0.51012 -0.510117,0.51012 l -1.113631,0 c -0.281781,0 -0.510646,-0.22807 -0.510646,-0.51012 l 0,-2.18122 z" />
    <path
       d="m 89.803042,105.41852 c 0,-0.28205 0.2286,-0.51065 0.510646,-0.51065 l 1.113896,0 c 0.281517,0 0.510117,0.22834 0.510117,0.51065 l 0,5.08264 c 0,0.28178 -0.2286,0.51012 -0.510117,0.51012 l -1.113896,0 c -0.281781,0 -0.510646,-0.22807 -0.510646,-0.51012 l 0,-5.08264 z" />
  </g>
</svg>
