<svg  viewBox="0 0 134.36557 81.926949">
  <g     transform="translate(0.6589686,-1.2805681)">
    <g       transform="matrix(0,0.3527778,-0.3527778,0,232.83866,-13.834197)">
            <path
               d="M 143.602,661.713 C 121.477,660.091 103.686,647.173 99.114,631 l 0,0 -19.063,-1.399 c -9.65,-0.707 -16.98,-9.127 -16.386,-18.761 l 0,0 -5.663,-0.416 c -8.97,-0.658 -15.771,-8.535 -15.113,-17.505 l 0,0 21.76,-296.755 c 0.658,-8.97 8.535,-15.772 17.506,-15.116 l 0,0 177.765,13.036 c 8.97,0.658 15.772,8.535 15.115,17.506 l 0,0 -21.762,296.755 c -0.657,8.971 -8.535,15.773 -17.505,15.114 l 0,0 -6.984,-0.511 c -0.817,9.617 -9.296,16.878 -18.946,16.171 l 0,0 -17.743,-1.302 c -6.4,14.26 -23.698,24.066 -43.884,24.066 l 0,0 c -1.521,0 -3.059,-0.056 -4.609,-0.17 m -9.174,-31.462 c -0.501,6.845 4.659,12.821 11.503,13.322 l 0,0 c 6.844,0.503 12.822,-4.659 13.322,-11.502 l 0,0 c 0.502,-6.845 -4.658,-12.821 -11.502,-13.323 l 0,0 c -0.308,-0.022 -0.613,-0.033 -0.918,-0.033 l 0,0 c -6.452,0 -11.925,5 -12.405,11.536" />
    </g>
  </g>
</svg>
