<svg viewBox="0 0 57.796642 57.796993">
  <g
     transform="translate(-59.548109,-91.208646)"
     >
    <path
       d="m 88.446605,142.9241 c -12.601574,0 -22.816607,-10.21538 -22.816607,-22.81696 0,-12.60051 10.215033,-22.816958 22.816607,-22.816958 12.601225,0 22.816965,10.216448 22.816965,22.816958 0,12.60158 -10.21574,22.81696 -22.816965,22.81696 m 0,-47.586543 c -13.679663,0 -24.769585,11.089923 -24.769585,24.769583 0,13.68073 11.089922,24.76959 24.769585,24.76959 13.680015,0 24.769235,-11.08886 24.769235,-24.76959 0,-13.67966 -11.08922,-24.769583 -24.769235,-24.769583" />
    <path
       d="m 110.64691,120.10714 c 0,12.26044 -9.93916,22.20066 -22.200305,22.20066 -12.260791,0 -22.199951,-9.94022 -22.199951,-22.20066 0,-12.26079 9.93916,-22.200302 22.199951,-22.200302 12.261145,0 22.200305,9.939512 22.200305,22.200302" />
    <path
       d="m 114.4495,120.10714 c 0,14.36053 -11.64237,26.00255 -26.002895,26.00255 -14.360877,0 -26.002896,-11.64202 -26.002896,-26.00255 0,-14.36123 11.642019,-26.002894 26.002896,-26.002894 14.360525,0 26.002895,11.641664 26.002895,26.002894 z" />
    <path
       d="m 60.97439,120.10714 c 0,-15.14827 12.323938,-27.472213 27.472215,-27.472213 15.148635,0 27.472215,12.323943 27.472215,27.472213 0,15.14863 -12.32358,27.47187 -27.472215,27.47187 -15.148277,0 -27.472215,-12.32324 -27.472215,-27.47187 m -1.426281,0 c 0,15.93462 12.963877,28.8985 28.898496,28.8985 15.934625,0 28.898145,-12.96388 28.898145,-28.8985 0,-15.93497 -12.96352,-28.898494 -28.898145,-28.898494 -15.934619,0 -28.898496,12.963524 -28.898496,28.898494" />
  </g>
</svg>
