<svg   viewBox="0 0 57.848438 57.846176">
  <g
     transform="translate(-5.0936383,-12.001464)">
    <path
       d="m 60.29122,28.236909 c 0.655108,1.355019 -0.911225,3.529189 -0.478015,4.909961 0.43039,1.431572 2.925588,2.383719 3.11644,3.824817 0.194381,1.468966 -1.954742,3.076928 -1.984024,4.521198 -0.02646,1.485549 2.042584,3.179588 1.781882,4.616099 -0.254707,1.44286 -2.795765,2.30646 -3.284715,3.691466 -0.492477,1.375127 0.982488,3.618442 0.287867,4.923719 -0.70485,1.305279 -3.387371,1.321506 -4.265084,2.499431 -0.890058,1.17475 -0.187676,3.756025 -1.261178,4.76744 -1.046692,1.008944 -3.613857,0.213429 -4.818592,1.054804 -1.192038,0.828675 -1.347613,3.500263 -2.677232,4.142317 -1.355018,0.654404 -3.533775,-0.890059 -4.922308,-0.472369 -1.420283,0.425098 -2.385131,2.926292 -3.823406,3.117144 -1.461204,0.212018 -3.055761,-1.938161 -4.516612,-1.978377 -1.480257,-0.03916 -3.163006,2.052108 -4.603751,1.782937 C 27.387989,69.369737 26.530034,66.828682 25.147145,66.359134 23.769901,65.874769 21.51424,67.326098 20.22272,66.631125 18.926967,65.946032 18.89804,63.267036 17.721173,62.36075 16.556654,61.494682 13.96162,62.176952 12.944209,61.105919 11.933854,60.059934 12.739245,57.51429 11.897165,56.282036 11.071665,55.090352 8.399726,54.962294 7.7449706,53.607627 7.0962122,52.26425 8.654079,50.081967 8.2328623,48.692375 7.79189,47.268211 5.2977512,46.3143 5.107604,44.874967 4.901229,43.411644 7.0496456,41.801919 7.0944483,40.352002 7.1170263,38.866457 5.0374012,37.178767 5.3062178,35.737317 5.5651567,34.293398 8.1083317,33.439323 8.590226,32.06737 9.0749427,30.67672 7.6183233,28.422117 8.31259,27.117192 c 0.6960306,-1.272116 3.370086,-1.311275 4.259086,-2.495902 0.888647,-1.146528 0.195439,-3.735564 1.260828,-4.765675 1.044222,-1.008239 3.603272,-0.208844 4.818591,-1.055864 1.190272,-0.827616 1.335617,-3.494616 2.690636,-4.149019 1.330325,-0.642408 3.519311,0.897819 4.909608,0.479425 1.407936,-0.419453 2.38125,-2.924881 3.8227,-3.116439 1.468614,-0.193322 3.053997,1.96462 4.51732,1.975908 1.469319,0.04445 3.160535,-2.022827 4.609394,-1.785761 1.453798,0.267759 2.294818,2.819048 3.686175,3.304823 1.383593,0.470252 3.636785,-0.990248 4.923718,-0.293864 1.287992,0.690386 1.328915,3.36303 2.507547,4.267905 1.148995,0.873831 3.745087,0.191911 4.774845,1.257653 1.010005,1.045633 0.2032,3.59163 1.056217,4.81718 0.8128,1.199797 3.493913,1.336675 4.141965,2.679347" />
    <path
       d="m 62.020888,40.924209 c 0,1.444273 -2.2606,2.670175 -2.463093,4.044243 -0.224367,1.416757 1.535641,3.28154 1.099256,4.606573 -0.445206,1.350434 -2.974623,1.843969 -3.602921,3.079398 -0.643467,1.273527 0.438856,3.601154 -0.385937,4.733925 -0.822325,1.140884 -3.378555,0.827263 -4.379032,1.820686 -1.000831,0.982133 -0.661458,3.53695 -1.806223,4.374798 -1.154287,0.83467 -3.479094,-0.270582 -4.729692,0.380645 -1.26012,0.644525 -1.730727,3.16865 -3.080808,3.594807 -1.325033,0.435327 -3.212042,-1.323623 -4.604454,-1.098902 -1.376188,0.21872 -2.625373,2.463093 -4.043188,2.463093 -1.44427,0 -2.682521,-2.244373 -4.057648,-2.463093 -1.403703,-0.224721 -3.281892,1.534229 -4.605161,1.098902 -1.350786,-0.426157 -1.833034,-2.950282 -3.078339,-3.594807 -1.262592,-0.651227 -3.590925,0.454025 -4.723342,-0.380645 -1.144411,-0.837848 -0.826558,-3.392665 -1.825625,-4.374798 -0.98813,-0.993423 -3.544005,-0.680861 -4.369858,-1.820686 C 10.530504,56.255577 11.623409,53.92795 10.984176,52.653011 10.340004,51.418994 7.8112927,50.925459 7.37914,49.575025 6.9434595,48.249992 8.7009983,46.385209 8.4875677,44.968452 8.271315,43.594384 6.0142428,42.368482 6.0142428,40.924209 c 0,-1.431574 2.2570722,-2.668411 2.4733249,-4.04495 0.2134306,-1.414992 -1.5441082,-3.280481 -1.1084277,-4.604103 0.4321527,-1.350786 2.960864,-1.845733 3.605036,-3.07975 0.639233,-1.274233 -0.453672,-3.601508 0.380647,-4.735336 0.825853,-1.139472 3.38067,-0.817033 4.369858,-1.801283 0.999067,-1.000125 0.681214,-3.556705 1.825625,-4.394905 1.132417,-0.809272 3.46075,0.273403 4.723342,-0.380295 1.245305,-0.61983 1.727553,-3.146777 3.078339,-3.592688 1.323269,-0.435681 3.201458,1.323269 4.605161,1.098197 1.375127,-0.218017 2.613378,-2.463095 4.057648,-2.463095 1.417815,0 2.667,2.245078 4.043188,2.463095 1.392412,0.225072 3.279421,-1.533878 4.604454,-1.098197 1.350081,0.445911 1.820688,2.972858 3.080808,3.592688 1.250598,0.651581 3.575405,-0.428977 4.729692,0.380295 1.144765,0.8382 0.806098,3.39478 1.806223,4.394905 1.000477,0.98425 3.556707,0.661811 4.379032,1.801283 0.824793,1.133828 -0.254707,3.461103 0.385937,4.735336 0.628298,1.234017 3.157715,1.728964 3.602921,3.07975 0.436385,1.324681 -1.323623,3.189111 -1.099256,4.604103 0.202493,1.376539 2.463093,2.613376 2.463093,4.04495" />
    <path
       d="m 13.399293,40.924915 c 0,-11.369323 9.24948,-20.618803 20.619153,-20.618803 11.368617,0 20.617392,9.24948 20.617392,20.618803 0,11.368969 -9.248775,20.617744 -20.617392,20.617744 -11.369673,0 -20.619153,-9.248775 -20.619153,-20.617744 m -0.468489,0 c 0,11.627202 9.460441,21.086233 21.087642,21.086233 11.626498,0 21.086234,-9.459031 21.086234,-21.086233 0,-11.627556 -9.459736,-21.087291 -21.086234,-21.087291 -11.627201,0 -21.087642,9.459735 -21.087642,21.087291" />
    <path
       d="M 17.203648,57.739009 C 12.711729,53.247442 10.238757,47.276677 10.238757,40.92456 c 0,-6.351762 2.472972,-12.323584 6.964891,-16.814445 4.491214,-4.491566 10.462683,-6.964891 16.814095,-6.964891 6.352468,0 12.323585,2.473325 16.8148,6.964891 4.491212,4.490861 6.964891,10.462683 6.964891,16.814445 0,6.352117 -2.473679,12.322882 -6.964891,16.814449 -4.491215,4.491566 -10.462332,6.964891 -16.8148,6.964891 -6.351412,0 -12.322881,-2.473325 -16.814095,-6.964891 M 17.03502,23.94184 c -4.536369,4.536016 -7.034388,10.567458 -7.034388,16.98272 0,6.415265 2.498019,12.446707 7.034388,16.982724 4.536722,4.536723 10.567811,7.034741 16.982723,7.034741 6.41491,0 12.447058,-2.498018 16.983426,-7.034741 4.536369,-4.536017 7.03439,-10.567459 7.03439,-16.982724 0,-6.415262 -2.498021,-12.446704 -7.03439,-16.98272 -4.536368,-4.536722 -10.568516,-7.034741 -16.983426,-7.034741 -6.414912,0 -12.446001,2.498019 -16.982723,7.034741" />
  </g>
</svg>
