<svg viewBox="0 0 17.834869 18.595144">
  <g     transform="translate(-18.976223,-15.524799)">
    <g
       transform="matrix(0.3527778,0,0,-0.3527778,35.540484,30.380113)">
      <path
         d="m 0,0 -11.553,-4.797 -0.279,0.203 -0.528,1.272 0.053,0.34 11.55,4.798 L -0.475,1.613 0.052,0.342 0,0 Z m -23.462,23.416 -0.527,1.272 0.053,0.339 11.551,4.795 0.28,-0.201 0.527,-1.271 -0.053,-0.342 -11.551,-4.797 -0.28,0.205 z m -2.327,5.602 -0.527,1.271 0.055,0.34 11.55,4.797 0.279,-0.203 0.528,-1.272 -0.054,-0.34 -11.55,-4.797 -0.281,0.204 z M 3.585,-3.988 -15.472,41.902 c -0.15,0.368 -1.309,0.233 -2.589,-0.297 l -10.798,-4.486 c -1.277,-0.531 -2.191,-1.256 -2.038,-1.621 l 19.055,-45.894 c 0.152,-0.364 1.311,-0.231 2.589,0.3 l 10.796,4.483 c 1.281,0.529 2.195,1.258 2.042,1.625" />
    </g>
    <path
       d="m 24.304573,18.893966 -0.0639,0.10477 -4.41219,0 -0.0642,-0.10477 0,-0.48507 0.0642,-0.10407 4.41219,0 0.0639,0.10407 0,0.48507 z m 0,2.13995 -0.0639,0.10548 -4.41219,0 -0.0642,-0.10548 0,-0.48578 0.0642,-0.10266 4.41219,0 0.0639,0.10266 0,0.48578 z m 0,10.69975 -0.0639,0.10336 -4.41219,0 -0.0642,-0.10336 0,-0.48613 0.0642,-0.10336 4.41219,0 0.0639,0.10336 0,0.48613 z m -0.31926,-15.89476 -4.12574,0 c -0.48718,0 -0.88335,0.11289 -0.88335,0.25365 l 0,17.52917 c 0,0.14006 0.39617,0.25365 0.88335,0.25365 l 4.12574,0 c 0.48789,0 0.88371,-0.11359 0.88371,-0.25365 l 0,-17.52917 c 0,-0.14076 -0.39582,-0.25365 -0.88371,-0.25365" />
  </g>
</svg>
